# xmcd
#
# Track frame offsets:
#	150
#	8858
#	23626
#	41772
#	55205
#	69567
#	83480
#	97154
#	109728
#	123244
#	137110
#	152124
#	166864
#	178682
#	189144
#	200702
#	213797
#	227368
#	242258
#	255210
#	266938
#	276627
#	292345
#	304170
#	317279
#
# Disc length: 4425 seconds
#
# Revision: 0
# Processed by: cddbd v1.5.2PL0 Copyright (c) Steve Scherf et al.
# Submitted via: audiograbber 1.83.01
#
DISCID=5a114719
DTITLE=div - To Hits Of The ´40s
DYEAR=2018
DGENRE=Chansons
TTITLE0=Al Jolson - Swanee
TTITLE1=Glenn Miller - Pennsylvania 6-500
TTITLE2=Fats Waller - Ain´t Misbehavin
TTITLE3=Vaughn Monroe and His Orchestra - ´riders In The Sky
TTITLE4=The Ndresw Sisters - Rum And Coca Cola
TTITLE5=Nat King Cole Trio - Route 66
TTITLE6=Bing Crosby - Pistol Packin´ Mama
TTITLE7=Frank Sinatra - All Of Me
TTITLE8=Doris Day and Buddy Clark - Confess
TTITLE9=Artie Shaw - Dancing In The Dark
TTITLE10=Billie Holiday - Now Or Never
TTITLE11=Benny Goodman - After Yoiu´re Gone
TTITLE12=Ella Fitzgerald - It´s Only A Paper Moon
TTITLE13=Fred Waring and His Pennsylvanians - Dry Bones
TTITLE14=Peggy Lee - I Can´t Give You Anything But Love
TTITLE15=The Ink Spots - Bless Xou For Being An Angel
TTITLE16=Bing Crosby and Al Jolson - Alexander´s Ragtime Band
TTITLE17=Perry Como - If I Loved You
TTITLE18=Judy Garland - The Trolley Song
TTITLE19=Louis Jordan and His Tympany Five - Caldonia
TTITLE20=Margaret Whiting and Jimmy Wakely - Slipping Around
TTITLE21=Glenn Miller - Chattanooga Choo Choo
TTITLE22=The Mills Brothers - Paper Doll
TTITLE23=Tommy Dorsey - Opus One
TTITLE24=Doris Day and Les Brown - Sentimental Journey
EXTD=
EXTT0=
EXTT1=
EXTT2=
EXTT3=
EXTT4=
EXTT5=
EXTT6=
EXTT7=
EXTT8=
EXTT9=
EXTT10=
EXTT11=
EXTT12=
EXTT13=
EXTT14=
EXTT15=
EXTT16=
EXTT17=
EXTT18=
EXTT19=
EXTT20=
EXTT21=
EXTT22=
EXTT23=
EXTT24=
PLAYORDER=
